<svg xmlns="http://www.w3.org/2000/svg" viewBox="0 0 750 270"><defs><style>.cls-1{isolation:isolate;}.cls-2{fill:#151449;}.cls-3{fill:#fff;}.cls-4{fill:#e52027;}.cls-5{fill:#ec1c24;}.cls-23,.cls-6{fill:#231f20;}.cls-22,.cls-6{opacity:0.2;mix-blend-mode:multiply;}.cls-7{fill:#e52527;}.cls-8{fill:#3c549d;}.cls-9{fill:#d71f26;}.cls-10{fill:#731012;}.cls-11{fill:#ec2224;}.cls-12{fill:#9d9e9f;}.cls-13{fill:#4b4a4b;}.cls-14{fill:silver;}.cls-15{fill:#00b1b7;}.cls-16{fill:#f6eb21;}.cls-17,.cls-18{fill:#e72327;}.cls-18{fill-rule:evenodd;}.cls-19{fill:#0fae56;}.cls-20{fill:#99877d;}.cls-21{fill:#ad8a2f;}</style></defs><title>map</title><g class="cls-1"><g id="Layer_1" data-name="Layer 1"><path class="cls-2" d="M0,0Z"/><path class="cls-2" d="M0,0ZM0,0Z"/><path class="cls-2" d="M0,0ZM0,0ZM0,0Z"/><path class="cls-2" d="M0,0Z"/><path class="cls-2" d="M0,0ZM0,0Z"/><path class="cls-2" d="M0,0ZM0,0Z"/><path class="cls-2" d="M0,0Z"/><path class="cls-2" d="M0,0Z"/><path class="cls-2" d="M0,0Z"/><path class="cls-2" d="M0,0Z"/><path d="M0,0ZM0,0ZM0,0ZM0,0Z"/><path d="M0,0Z"/><path d="M0,0Z"/><path d="M0,0Z"/><path d="M0,0Z"/><path d="M0,0Z"/><path d="M0,0ZM0,0Z"/><path d="M0,0Z"/><path d="M0,0Z"/><path d="M0,0Z"/><path d="M0,0Z"/><path d="M0,0Z"/><path d="M0,0Z"/><path d="M0,0Z"/><path d="M0,0Z"/><path d="M0,0Z"/><path d="M0,0Z"/><path d="M0,0Z"/><path d="M0,0Z"/><path d="M0,0Z"/><path d="M0,0Z"/><path d="M0,0Z"/><path d="M0,0Z"/><path d="M0,0Z"/><path d="M0,0Z"/><path d="M0,0ZM0,0Z"/><path d="M0,0Z"/><path d="M0,0Z"/><path d="M0,0Z"/><path class="cls-3" d="M0,0Z"/><path class="cls-3" d="M0,0Z"/><path class="cls-3" d="M0,0Z"/><path class="cls-3" d="M0,0Z"/><path class="cls-3" d="M0,0Z"/><path class="cls-3" d="M0,0Z"/><path class="cls-3" d="M0,0Z"/><path class="cls-3" d="M0,0Z"/><path class="cls-3" d="M0,0Z"/><path class="cls-3" d="M0,0Z"/><path class="cls-3" d="M0,0Z"/><path class="cls-3" d="M0,0Z"/><path class="cls-3" d="M0,0Z"/><path class="cls-4" d="M0,0Z"/><path class="cls-4" d="M0,0Z"/><path class="cls-4" d="M0,0ZM0,0Z"/><path class="cls-4" d="M0,0Z"/><path class="cls-4" d="M0,0Z"/><path class="cls-4" d="M0,0Z"/><path class="cls-4" d="M0,0Z"/><path class="cls-4" d="M0,0Z"/><path class="cls-4" d="M0,0Z"/><path class="cls-4" d="M0,0Z"/><path class="cls-4" d="M0,0Z"/><path class="cls-4" d="M0,0Z"/><rect class="cls-5" x="410" y="43" width="31" height="31.07" rx="6"/><path class="cls-6" d="M0,0Z"/><path class="cls-3" d="M0,0Z"/><path class="cls-7" d="M0,0ZM0,0ZM0,0Z"/><path class="cls-7" d="M0,0Z"/><path class="cls-8" d="M0,0ZM0,0Z"/><path class="cls-8" d="M0,0ZM0,0Z"/><path class="cls-8" d="M0,0ZM0,0Z"/><path class="cls-8" d="M0,0ZM0,0ZM0,0Z"/><polygon class="cls-8" points="431 61 431 61 431 62 430 61 431 61 430 61 430 62 430 62 430 61 430 62 430 62 430 62 432 61 431 61 431 61"/><polygon class="cls-8" points="419 57 419 57 419 56 419 56 419 57 418 57 418 57 419 56 419 55 419 55 419 55 418 55 418 55 418 55 418 56 418 56 418 56 419 56 419 56 418 57 418 57 419 57 419 57"/><path class="cls-8" d="M0,0ZM0,0Z"/><polygon class="cls-8" points="432 58 433 59 432 59 432 59 432 59 432 59 432 59 432 58 432 59 432 59 432 59 432 59 432 58 432 58 432 58 432 58 431 60 431 60 432 59 432 60 432 60 432 60 433 58 433 58 432 58"/><polygon class="cls-8" points="433 56 433 55 433 55 433 55 432 55 432 55 432 55 432 56 433 56 432 56 432 57 432 57 432 57 433 57 433 57 433 57 433 56 433 56 433 57 432 57 432 57 433 56 433 56 432 56 432 56 433 56 433 56 433 56"/><path class="cls-8" d="M0,0ZM0,0Z"/><path class="cls-8" d="M0,0ZM0,0Z"/><path d="M0,0Z"/><path d="M0,0Z"/><path d="M0,0Z"/><path d="M0,0Z"/><path d="M0,0Z"/><path d="M0,0Z"/><path d="M0,0Z"/><path d="M0,0Z"/><path d="M0,0Z"/><path d="M0,0Z"/><path d="M0,0Z"/><path d="M0,0Z"/><path d="M0,0Z"/><path d="M0,0Z"/><path d="M0,0Z"/><path d="M0,0Z"/><path d="M0,0Z"/><path d="M0,0Z"/><path d="M0,0Z"/><path d="M0,0Z"/><path d="M0,0Z"/><path d="M0,0Z"/><path d="M0,0Z"/><path d="M0,0Z"/><path d="M0,0Z"/><path d="M0,0Z"/><path d="M0,0Z"/><path d="M0,0Z"/><path d="M0,0ZM0,0Z"/><path d="M0,0Z"/><path d="M0,0Z"/><path d="M0,0ZM0,0Z"/><path d="M0,0Z"/><path d="M0,0Z"/><path d="M0,0Z"/><path d="M0,0Z"/><path d="M0,0Z"/><path d="M0,0Z"/><path d="M0,0Z"/><path d="M0,0Z"/><path d="M0,0ZM0,0Z"/><path d="M0,0Z"/><path d="M0,0Z"/><path d="M0,0Z"/><path d="M0,0Z"/><path d="M0,0Z"/><path d="M0,0Z"/><path d="M0,0Z"/><path d="M0,0Z"/><path d="M0,0Z"/><rect class="cls-9" x="408" y="92" width="22" height="24.24"/><polygon class="cls-10" points="430 117 441 106 441 82 430 92 430 117"/><polygon class="cls-11" points="408 92 419 82 441 82 430 92 408 92"/><rect class="cls-12" x="209" y="156" width="40" height="14.84"/><polygon class="cls-13" points="249 171 260 160 260 145 249 156 249 171"/><polygon class="cls-14" points="209 156 219 145 260 145 249 156 209 156"/><rect class="cls-12" x="229" y="141" width="15" height="14.85"/><polygon class="cls-13" points="243 156 254 145 254 130 243 141 243 156"/><polygon class="cls-14" points="229 141 240 130 254 130 243 141 229 141"/><rect class="cls-12" x="304" y="133" width="15" height="38.74"/><polygon class="cls-13" points="318 172 324 166 324 127 318 133 318 172"/><polygon class="cls-14" points="304 133 310 127 324 127 318 133 304 133"/><rect class="cls-12" x="64" y="154" width="17" height="17.65"/><polygon class="cls-13" points="82 172 95 159 95 141 82 154 82 172"/><polygon class="cls-14" points="64 154 77 141 95 141 82 154 64 154"/><rect class="cls-12" x="231" y="70" width="15" height="14.84"/><polygon class="cls-13" points="245 85 256 74 256 59 245 70 245 85"/><polygon class="cls-14" points="231 70 241 59 256 59 245 70 231 70"/><rect class="cls-12" x="251" y="70" width="15" height="14.84"/><polygon class="cls-13" points="265 85 276 74 276 59 265 70 265 85"/><polygon class="cls-14" points="251 70 262 59 276 59 265 70 251 70"/><rect class="cls-12" x="271" y="70" width="15" height="14.84"/><polygon class="cls-13" points="286 85 296 74 296 59 286 70 286 85"/><polygon class="cls-14" points="271 70 282 59 296 59 286 70 271 70"/><rect class="cls-12" x="457" y="70" width="15" height="14.84"/><polygon class="cls-13" points="472 85 483 74 483 59 472 70 472 85"/><polygon class="cls-14" points="457 70 468 59 483 59 472 70 457 70"/><rect class="cls-12" x="477" y="70" width="15" height="14.84"/><polygon class="cls-13" points="492 85 503 74 503 59 492 70 492 85"/><polygon class="cls-14" points="477 70 488 59 503 59 492 70 477 70"/><rect class="cls-12" x="497" y="70" width="15" height="14.84"/><polygon class="cls-13" points="512 85 523 74 523 59 512 70 512 85"/><polygon class="cls-14" points="497 70 508 59 523 59 512 70 497 70"/><rect class="cls-12" x="640" y="76" width="10" height="9.42"/><polygon class="cls-13" points="650 85 656 80 656 70 650 76 650 85"/><polygon class="cls-14" points="640 76 646 70 656 70 650 76 640 76"/><rect class="cls-12" x="658" y="127" width="10" height="9.42"/><polygon class="cls-13" points="668 136 674 131 674 121 668 127 668 136"/><polygon class="cls-14" points="658 127 663 121 674 121 668 127 658 127"/><rect class="cls-12" x="650" y="137" width="10" height="9.42"/><polygon class="cls-13" points="660 146 666 141 666 131 660 137 660 146"/><polygon class="cls-14" points="650 137 656 131 666 131 660 137 650 137"/><rect class="cls-12" x="643" y="147" width="10" height="9.42"/><polygon class="cls-13" points="653 156 658 151 658 141 653 147 653 156"/><polygon class="cls-14" points="643 147 648 141 658 141 653 147 643 147"/><rect class="cls-12" x="612" y="101" width="15" height="14.5"/><polygon class="cls-13" points="627 116 636 108 636 93 627 101 627 116"/><polygon class="cls-14" points="612 101 620 93 636 93 627 101 612 101"/><rect class="cls-12" x="602" y="121" width="15" height="7.25"/><polygon class="cls-13" points="617 129 625 120 625 113 617 121 617 129"/><polygon class="cls-14" points="602 121 610 113 625 113 617 121 602 121"/><path class="cls-6" d="M0,0Z"/><path class="cls-6" d="M0,0Z"/><path class="cls-5" d="M0,0ZM0,0ZM0,0ZM0,0ZM0,0ZM0,0ZM0,0Z"/><path class="cls-15" d="M0,0Z"/><path class="cls-6" d="M0,0Z"/><path class="cls-3" d="M0,0ZM0,0ZM0,0ZM0,0ZM0,0ZM0,0ZM0,0ZM0,0ZM0,0ZM0,0ZM0,0ZM0,0Z"/><path class="cls-16" d="M0,0Z"/><path class="cls-6" d="M0,0ZM0,0Z"/><path class="cls-16" d="M0,0Z"/><path class="cls-17" d="M0,0ZM0,0Z"/><rect class="cls-17" x="618" y="113" width="1" height="3.15"/><rect class="cls-17" x="616" y="113" width="1" height="3.15"/><path class="cls-18" d="M0,0H0M0,0Z"/><path class="cls-17" d="M0,0H0"/><path class="cls-17" d="M0,0H0"/><path class="cls-19" d="M0,0Z"/><path class="cls-6" d="M0,0ZM0,0Z"/><path class="cls-3" d="M0,0H0"/><path class="cls-20" d="M0,0H0"/><path class="cls-20" d="M0,0H0"/><path class="cls-20" d="M0,0H0"/><path class="cls-20" d="M0,0H0"/><path class="cls-20" d="M0,0H0"/><path class="cls-20" d="M0,0H0"/><path class="cls-17" d="M0,0ZM0,0H0"/><path class="cls-19" d="M0,0Z"/><path class="cls-19" d="M0,0Z"/><path class="cls-19" d="M0,0Z"/><path class="cls-21" d="M0,0Z"/><g class="cls-22"><path class="cls-23" d="M0,0Z"/><path class="cls-23" d="M0,0Z"/><path class="cls-23" d="M0,0Z"/><path class="cls-23" d="M0,0Z"/><path class="cls-23" d="M0,0Z"/><path class="cls-23" d="M0,0Z"/><path class="cls-23" d="M0,0Z"/><path class="cls-23" d="M0,0Z"/><path class="cls-23" d="M0,0Z"/><path class="cls-23" d="M0,0Z"/><path class="cls-23" d="M0,0Z"/><path class="cls-23" d="M0,0Z"/><path class="cls-23" d="M0,0Z"/><path class="cls-23" d="M0,0Z"/><path class="cls-23" d="M0,0Z"/><path class="cls-23" d="M0,0Z"/><path class="cls-23" d="M0,0Z"/><path class="cls-23" d="M0,0Z"/><path class="cls-23" d="M0,0Z"/><path class="cls-23" d="M0,0Z"/><path class="cls-23" d="M0,0Z"/><path class="cls-23" d="M0,0Z"/><path class="cls-23" d="M0,0Z"/><path class="cls-23" d="M0,0Z"/><path class="cls-23" d="M0,0Z"/><path class="cls-23" d="M0,0Z"/><path class="cls-23" d="M0,0Z"/><path class="cls-23" d="M0,0Z"/><path class="cls-23" d="M0,0Z"/><path class="cls-23" d="M0,0Z"/><path class="cls-23" d="M0,0Z"/><path class="cls-23" d="M0,0Z"/><path class="cls-23" d="M0,0Z"/><path class="cls-23" d="M0,0Z"/><path class="cls-23" d="M0,0Z"/><path class="cls-23" d="M0,0Z"/><path class="cls-23" d="M0,0Z"/><path class="cls-23" d="M0,0Z"/><path class="cls-23" d="M0,0Z"/><path class="cls-23" d="M0,0Z"/><path class="cls-23" d="M0,0Z"/><path class="cls-23" d="M0,0Z"/></g><path class="cls-3" d="M0,0Z"/><path class="cls-3" d="M0,0Z"/><path class="cls-3" d="M0,0Z"/><polygon class="cls-3" points="650 59 649 58 648 59 649 60 650 59"/><path class="cls-4" d="M0,0Z"/><path class="cls-4" d="M0,0Z"/><path class="cls-4" d="M0,0Z"/><path class="cls-4" d="M0,0Z"/><path class="cls-4" d="M0,0Z"/><path class="cls-4" d="M0,0Z"/><path class="cls-4" d="M0,0Z"/><path class="cls-4" d="M0,0Z"/><path class="cls-4" d="M0,0Z"/><path class="cls-4" d="M0,0Z"/><path class="cls-4" d="M0,0Z"/><path class="cls-4" d="M0,0Z"/><path class="cls-4" d="M0,0Z"/><path class="cls-4" d="M0,0ZM0,0Z"/><path class="cls-4" d="M0,0Z"/><path class="cls-4" d="M0,0Z"/><path class="cls-4" d="M0,0ZM0,0Z"/><path class="cls-3" d="M0,0Z"/><path class="cls-3" d="M0,0Z"/><path class="cls-3" d="M0,0Z"/><path class="cls-3" d="M0,0Z"/><path class="cls-3" d="M0,0Z"/><path class="cls-3" d="M0,0ZM0,0Z"/><path class="cls-3" d="M0,0Z"/><path class="cls-3" d="M0,0Z"/><path class="cls-3" d="M0,0Z"/><path class="cls-3" d="M0,0Z"/><path class="cls-3" d="M0,0Z"/><path class="cls-3" d="M0,0Z"/><path class="cls-3" d="M0,0Z"/><path class="cls-3" d="M0,0Z"/><path class="cls-3" d="M0,0Z"/><path class="cls-3" d="M0,0ZM0,0Z"/><path class="cls-3" d="M0,0Z"/><path class="cls-3" d="M0,0Z"/><path class="cls-3" d="M0,0Z"/><path class="cls-3" d="M0,0Z"/><path d="M0,0Z"/><path d="M0,0Z"/><path d="M0,0Z"/><path d="M0,0Z"/><path d="M0,0Z"/><path d="M0,0Z"/><path d="M0,0Z"/><path d="M0,0ZM0,0Z"/><path d="M0,0Z"/><path d="M0,0Z"/><path d="M0,0Z"/><path d="M0,0ZM0,0Z"/><path class="cls-3" d="M0,0Z"/><path class="cls-3" d="M0,0Z"/><path class="cls-3" d="M0,0Z"/><path class="cls-3" d="M0,0Z"/><path class="cls-3" d="M0,0Z"/><path class="cls-3" d="M0,0Z"/><path class="cls-3" d="M0,0Z"/><path class="cls-3" d="M0,0Z"/><path class="cls-3" d="M0,0Z"/><path class="cls-3" d="M0,0Z"/><path class="cls-3" d="M0,0Z"/><path class="cls-3" d="M0,0Z"/><path class="cls-3" d="M0,0Z"/><path class="cls-3" d="M0,0ZM0,0Z"/><polygon class="cls-4" points="364 172 356 168 364 164 364 172"/><polygon class="cls-4" points="388 103 396 108 388 112 388 103"/></g></g></svg>