<svg xmlns="http://www.w3.org/2000/svg" viewBox="0 0 729.66 258.76"><defs><style>.cls-1{fill:#c7c5c0;}.cls-2{fill:#5c5c5d;}</style></defs><title>Asset 5</title><g id="Layer_2" data-name="Layer 2"><g id="Layer_1-2" data-name="Layer 1"><rect class="cls-1" width="729.66" height="258.76"/><path class="cls-2" d="M272.06,103.92a10.2,10.2,0,0,1-2.51-.62v-2.83a12.56,12.56,0,0,0,2.52.71,14.24,14.24,0,0,0,2.59.25,9.15,9.15,0,0,0,3.23-.4,1.58,1.58,0,0,0,1-1.62,1.82,1.82,0,0,0-.38-1.2,2.55,2.55,0,0,0-1-.73c-.44-.19-1.11-.43-2-.72l-1.22-.4a12.18,12.18,0,0,1-3.81-1.92,3.59,3.59,0,0,1-1.26-2.94A4.14,4.14,0,0,1,270.86,88a8.44,8.44,0,0,1,5-1.26,17.42,17.42,0,0,1,2.77.22,14.86,14.86,0,0,1,2.37.53v2.8a12.18,12.18,0,0,0-2.26-.59,13.51,13.51,0,0,0-2.38-.22,8.07,8.07,0,0,0-3,.42,1.52,1.52,0,0,0-1,1.54,1.5,1.5,0,0,0,.42,1.09,3.3,3.3,0,0,0,1.13.73c.48.2,1.22.46,2.21.79l.9.28a11.19,11.19,0,0,1,3.86,2,4,4,0,0,1,1.19,3.13,4,4,0,0,1-1.81,3.56,9.21,9.21,0,0,1-5,1.17A22.31,22.31,0,0,1,272.06,103.92Z"/><path class="cls-2" d="M275.06,111.2a2.27,2.27,0,0,1-1-1.89v-1.59h-1.69l.13-2.12h4v3.15a.92.92,0,0,0,.33.76,1.46,1.46,0,0,0,.92.26,1.53,1.53,0,0,0,.95-.26.92.92,0,0,0,.32-.76V105.6h2.46V109a2.69,2.69,0,0,1-1,2.13,4,4,0,0,1-2.75.86A4.37,4.37,0,0,1,275.06,111.2Z"/><path class="cls-2" d="M289,102.41a6.38,6.38,0,0,1-2-5.12V87h3.39v10.4a3.89,3.89,0,0,0,1.08,3,4.65,4.65,0,0,0,3.22,1,4.74,4.74,0,0,0,3.24-1,3.89,3.89,0,0,0,1.09-3V82h3.36V97.29a6.41,6.41,0,0,1-2,5.12,10.21,10.21,0,0,1-11.37,0Z"/><path class="cls-2" d="M307.43,101.15h1.15a1.22,1.22,0,0,0,.92-.29,1.58,1.58,0,0,0,.26-1V97.76a5.52,5.52,0,0,1,.47-2.44A2.92,2.92,0,0,1,312,93.9l-3.42-.84V89.57a11.34,11.34,0,0,1,3.44-2,12.3,12.3,0,0,1,4.59-.83,8.43,8.43,0,0,1,5.6,1.62q1.9,1.62,1.9,5.07v10.43h-3.36V93.31a3.86,3.86,0,0,0-1-3,4.85,4.85,0,0,0-3.27-.87,9.42,9.42,0,0,0-2.9.43A5.47,5.47,0,0,0,311.47,91v.56l3.65.9v2.24a2.56,2.56,0,0,0-1.54,1,4.16,4.16,0,0,0-.39,2.07V100q0,3.8-3.68,3.8h-2.08Z"/><path class="cls-2" d="M335.94,93.25a6.92,6.92,0,0,0-.28-2.17,2.17,2.17,0,0,0-1.08-1.21,5,5,0,0,0-2.29-.42,11.46,11.46,0,0,0-2.16.22,10.64,10.64,0,0,0-2.1.59V87.64a11.54,11.54,0,0,1,2.3-.66,13.32,13.32,0,0,1,2.62-.27q3.36,0,4.87,1.46c1,1,1.51,2.52,1.51,4.64v11h-3.39Z"/><path class="cls-2" d="M344,87h3.33l2.49,12,3-9.61V87h2.43l3.39,12,2.43-12h3.3l-3.86,16.81h-3.11L354.3,93.12l-3.36,10.71h-3.08Z"/><path class="cls-2" d="M369,90.16a3.28,3.28,0,0,1,.78-2.27,2.75,2.75,0,0,1,2.17-.87h3.21l.16,2.62h-1.62a1.45,1.45,0,0,0-1.11.35,1.71,1.71,0,0,0-.32,1.17v8.12l4.1-7.12h1.37l4.11,7.12V87h3.24v16.81h-3.33l-4.7-8.31-4.73,8.31H369Z"/><path class="cls-2" d="M391.63,102.88a5.4,5.4,0,0,1,.11-7.72,7.59,7.59,0,0,1,4.85-1.35h5.14V92.75a4,4,0,0,0-.41-2,2.27,2.27,0,0,0-1.34-1,8.38,8.38,0,0,0-2.58-.31,17.83,17.83,0,0,0-5.48.81V87.64A19.83,19.83,0,0,1,394.8,87a19,19,0,0,1,3.16-.27c2.45,0,4.25.51,5.42,1.54a6.11,6.11,0,0,1,1.74,4.81v10.77h-3.39V96.42h-4.92a4.78,4.78,0,0,0-2.66.59,2.26,2.26,0,0,0-.86,2,2.15,2.15,0,0,0,.78,1.89,4.76,4.76,0,0,0,2.62.54,7.91,7.91,0,0,0,2.14-.25v2.59a11.74,11.74,0,0,1-3.05.37A6.44,6.44,0,0,1,391.63,102.88Z"/><path class="cls-2" d="M414.11,103.73l-4.73-11.51h3.3l3.83,9.34a4.27,4.27,0,0,0,3.88-1.53,8.69,8.69,0,0,0,1.22-5.13,10.85,10.85,0,0,0-.37-3.21A2.71,2.71,0,0,0,420,90.06a5,5,0,0,0-2.46-.49h-1.19V87H418q3.58,0,5.25,1.92c1.11,1.27,1.66,3.25,1.66,5.92,0,3.16-.69,5.49-2.07,7a7.19,7.19,0,0,1-5.58,2.27A9.52,9.52,0,0,1,414.11,103.73Z"/><path class="cls-2" d="M436.09,93.25a6.92,6.92,0,0,0-.28-2.17,2.17,2.17,0,0,0-1.08-1.21,5,5,0,0,0-2.29-.42,11.46,11.46,0,0,0-2.16.22,10.84,10.84,0,0,0-2.1.59V87.64a11.65,11.65,0,0,1,2.31-.66,13.15,13.15,0,0,1,2.61-.27q3.36,0,4.87,1.46c1,1,1.51,2.52,1.51,4.64v11h-3.39Z"/><path class="cls-2" d="M446.5,102.54A6.3,6.3,0,0,1,445,98V87h3.39V97.88a3.76,3.76,0,0,0,.82,2.71,3.56,3.56,0,0,0,2.63.84,6.13,6.13,0,0,0,2.59-.56,6.33,6.33,0,0,0,2.08-1.46V87h3.36v16.81h-3.08l-.15-1.84a8.77,8.77,0,0,1-5.92,2.15A5.52,5.52,0,0,1,446.5,102.54Z"/><path class="cls-2" d="M289,144.86a6.38,6.38,0,0,1-2-5.12V129.47h3.39v10.39a3.92,3.92,0,0,0,1.08,3,4.65,4.65,0,0,0,3.22,1,4.74,4.74,0,0,0,3.24-1,3.93,3.93,0,0,0,1.09-3V124.49h3.36v15.25a6.41,6.41,0,0,1-2,5.12,10.26,10.26,0,0,1-11.37,0Z"/><path class="cls-2" d="M289.53,124.05h-2.42v-2.33h4.76v2.83H297l-.12,2.36h-7.32Z"/><path class="cls-2" d="M314.21,135.69a6.61,6.61,0,0,0-.28-2.16,2.08,2.08,0,0,0-1.07-1.21,4.86,4.86,0,0,0-2.29-.43,12.36,12.36,0,0,0-2.16.22,11.37,11.37,0,0,0-2.1.59v-2.61a12.21,12.21,0,0,1,2.3-.67,13.93,13.93,0,0,1,2.62-.26c2.24,0,3.86.48,4.87,1.46a6.23,6.23,0,0,1,1.51,4.63v11h-3.4Z"/><path class="cls-2" d="M324.48,145.31a4.33,4.33,0,0,1-2.08-4,4,4,0,0,1,2.33-3.8,3.24,3.24,0,0,1-1.63-1.29,3.94,3.94,0,0,1-.61-2.23,4.53,4.53,0,0,1,1.43-3.59,5.6,5.6,0,0,1,3.83-1.26,8.29,8.29,0,0,1,2.74.4v2.58a8.28,8.28,0,0,0-2.12-.25c-1.74,0-2.61.71-2.61,2.12s1,2.21,2.93,2.21h1.77l.15,2.52h-2c-2,0-2.95.86-2.95,2.59a2.1,2.1,0,0,0,1.05,1.91,6.59,6.59,0,0,0,3.27.64,5.18,5.18,0,0,0,3.3-.89,3.25,3.25,0,0,0,1.09-2.69V129.47h3.36v10.42a6.3,6.3,0,0,1-1.9,5q-1.89,1.65-5.69,1.65A10.83,10.83,0,0,1,324.48,145.31Z"/><path class="cls-2" d="M344.79,145a5.89,5.89,0,0,1-1.85-4.65v-1.65a4,4,0,0,1,.43-1.85,14.26,14.26,0,0,1,1.28-2q.56-.75.81-1.17a1.56,1.56,0,0,0,.25-.82.76.76,0,0,0-.22-.64,1.32,1.32,0,0,0-.78-.17h-2.15l.29-2.55h3.92c1.57,0,2.36.75,2.36,2.27a3.9,3.9,0,0,1-.36,1.71,16.45,16.45,0,0,1-1.07,1.87,12.74,12.74,0,0,0-1,1.74,3.69,3.69,0,0,0-.36,1.62v1.9a3,3,0,0,0,1,2.49,4.41,4.41,0,0,0,2.86.81q3.82,0,3.83-3.4v-11h3.39v10.8a5.85,5.85,0,0,1-1.91,4.65,9.49,9.49,0,0,1-10.68,0Z"/><path class="cls-2" d="M354,121.78h3.39v5.1H354Z"/><path class="cls-2" d="M369.24,135.69a6.9,6.9,0,0,0-.28-2.16,2.13,2.13,0,0,0-1.08-1.21,4.84,4.84,0,0,0-2.28-.43,12.37,12.37,0,0,0-2.17.22,11.37,11.37,0,0,0-2.1.59v-2.61a12.21,12.21,0,0,1,2.3-.67,14.1,14.1,0,0,1,2.62-.26c2.24,0,3.86.48,4.87,1.46a6.23,6.23,0,0,1,1.51,4.63v11h-3.39Z"/><path class="cls-2" d="M377.27,145.65V143a10.57,10.57,0,0,0,4.23.91,7.93,7.93,0,0,0,3.37-.59,3.56,3.56,0,0,0,1.78-1.9,9.46,9.46,0,0,0,.54-3.52c0-2.16-.44-3.69-1.32-4.61s-2.35-1.37-4.4-1.37a10.39,10.39,0,0,0-4.2.91v-2.71a12.61,12.61,0,0,1,4.94-.93c2.76,0,4.83.73,6.2,2.21s2,3.64,2,6.5-.66,5-2,6.5-3.38,2.21-6.16,2.21A12.59,12.59,0,0,1,377.27,145.65Z"/><path class="cls-2" d="M396.2,145.34a5.43,5.43,0,0,1,.1-7.74,7.58,7.58,0,0,1,4.87-1.35h5.13v-1.06a3,3,0,0,0-.95-2.56,5.78,5.78,0,0,0-3.41-.74,17.77,17.77,0,0,0-5.47.81v-2.61a21,21,0,0,1,2.89-.67,20.45,20.45,0,0,1,3.18-.26,13.12,13.12,0,0,1,2.89.31h5.63l-.18,2.64h-2a4.47,4.47,0,0,1,.57,1.48,9.1,9.1,0,0,1,.17,1.91v10.77H406.3v-7.4h-4.95a4.63,4.63,0,0,0-2.63.59,2.23,2.23,0,0,0-.85,2,2.13,2.13,0,0,0,.78,1.88,4.73,4.73,0,0,0,2.61.55,7.84,7.84,0,0,0,2.12-.25v2.58a10.8,10.8,0,0,1-3,.37A6.52,6.52,0,0,1,396.2,145.34Z"/><path class="cls-2" d="M422,135.69a6.61,6.61,0,0,0-.28-2.16,2.15,2.15,0,0,0-1.07-1.21,4.88,4.88,0,0,0-2.29-.43,12.37,12.37,0,0,0-2.17.22,11.83,11.83,0,0,0-2.1.59v-2.61a12.33,12.33,0,0,1,2.31-.67,13.91,13.91,0,0,1,2.61-.26c2.24,0,3.87.48,4.87,1.46s1.51,2.52,1.51,4.63v11H422Z"/><path class="cls-2" d="M433.21,146.37a10.62,10.62,0,0,1-2.51-.63v-2.83a13.25,13.25,0,0,0,2.52.72,15.19,15.19,0,0,0,2.59.25,9.1,9.1,0,0,0,3.23-.41,1.58,1.58,0,0,0,1-1.62,1.81,1.81,0,0,0-.38-1.19,2.64,2.64,0,0,0-1-.74c-.44-.18-1.11-.42-2-.71l-1.21-.41a12.41,12.41,0,0,1-3.81-1.91A3.62,3.62,0,0,1,430.3,134a4.12,4.12,0,0,1,1.71-3.53,8.44,8.44,0,0,1,5-1.26,18.65,18.65,0,0,1,2.77.21,17.79,17.79,0,0,1,2.37.53v2.8a13,13,0,0,0-2.26-.59,14.53,14.53,0,0,0-2.38-.22,7.83,7.83,0,0,0-3,.43,1.51,1.51,0,0,0-1,1.53,1.46,1.46,0,0,0,.42,1.09,3.17,3.17,0,0,0,1.13.74c.48.19,1.22.46,2.21.79l.9.28a11,11,0,0,1,3.86,2,4.56,4.56,0,0,1-.62,6.69,9.3,9.3,0,0,1-5,1.16A23.76,23.76,0,0,1,433.21,146.37Z"/><path class="cls-2" d="M339.52,229.56a1.46,1.46,0,1,1-1.46-1.46A1.46,1.46,0,0,1,339.52,229.56Z"/><path class="cls-2" d="M347.17,229.56a1.46,1.46,0,1,1-1.46-1.46A1.46,1.46,0,0,1,347.17,229.56Z"/><path class="cls-2" d="M354.82,229.56a1.46,1.46,0,1,1-1.46-1.46A1.46,1.46,0,0,1,354.82,229.56Z"/><path class="cls-2" d="M362.47,229.56A1.47,1.47,0,1,1,361,228.1,1.46,1.46,0,0,1,362.47,229.56Z"/><path class="cls-2" d="M370.12,229.56a1.47,1.47,0,1,1-1.46-1.46A1.46,1.46,0,0,1,370.12,229.56Z"/><path class="cls-2" d="M377.77,229.56a1.47,1.47,0,1,1-1.47-1.46A1.46,1.46,0,0,1,377.77,229.56Z"/><path class="cls-2" d="M385.42,229.56A1.47,1.47,0,1,1,384,228.1,1.46,1.46,0,0,1,385.42,229.56Z"/><path class="cls-2" d="M393.06,229.56a1.46,1.46,0,1,1-1.46-1.46A1.46,1.46,0,0,1,393.06,229.56Z"/></g></g></svg>